<svg id="Layer_1" data-name="Layer 1" xmlns="http://www.w3.org/2000/svg" viewBox="0 0 284 278"><defs><style>.cls-1{fill:#eeeff1;}.cls-2{fill:#1d1d1b;}.cls-3{fill:#f49619;}.cls-4{fill:#3e486c;}.cls-5{fill:#fff;}.cls-6{fill:none;stroke:#3c3c3b;stroke-miterlimit:10;stroke-width:1.67px;}.cls-7{fill:#3c3c3b;}</style></defs><title>Logo_RCarb</title><rect class="cls-1" x="12.083" y="9.345" width="260.466" height="260.466" rx="12"/><path class="cls-2" d="M86.864,258.72V225.168h9.41q6.447,0,9.546,2.427t3.1,7.325q0,6.261-6.356,8.921l9.41,14.879H105.73l-7.965-13.448H92.349V258.72Zm5.485-17.946h3.81q3.831,0,5.553-1.429a5.192,5.192,0,0,0,1.722-4.24,4.571,4.571,0,0,0-1.859-4.1,10.157,10.157,0,0,0-5.6-1.245H92.349Z"/><path class="cls-2" d="M115.436,241.83a19.959,19.959,0,0,1,1.939-9.007,14.019,14.019,0,0,1,5.577-6.016,16.48,16.48,0,0,1,8.457-2.12,20.673,20.673,0,0,1,8.789,1.8l-.941,2.107a17.013,17.013,0,0,0-7.711-1.839q-6.31,0-9.937,4.046t-3.626,11.079q0,7.192,3.42,11.17t9.776,3.976a26.483,26.483,0,0,0,7.757-1.079v2.066a25.349,25.349,0,0,1-8.308,1.17q-7.068,0-11.13-4.572T115.436,241.83Z"/><path class="cls-2" d="M143.916,252.087a6.428,6.428,0,0,1,3.045-5.668q3.045-2.018,8.813-2.134l4.757-.137V242.5a8.491,8.491,0,0,0-1.444-5.371q-1.443-1.812-4.65-1.812a15.527,15.527,0,0,0-7.172,1.928l-.848-1.974a18.957,18.957,0,0,1,8.111-1.928q4.1,0,6.132,2.134t2.028,6.656V258.72h-1.675l-.574-3.947h-.183a11.86,11.86,0,0,1-3.86,3.408,10.311,10.311,0,0,1-4.686,1,8.181,8.181,0,0,1-5.742-1.882A6.714,6.714,0,0,1,143.916,252.087Zm2.456.092a4.66,4.66,0,0,0,1.431,3.638,5.814,5.814,0,0,0,4.045,1.3,7.936,7.936,0,0,0,8.591-8.629v-2.456l-4.353.183q-5.247.254-7.481,1.642A4.728,4.728,0,0,0,146.372,252.179Z"/><path class="cls-2" d="M170.744,258.72V233.775h1.927l.214,4.477h.154a10.536,10.536,0,0,1,3.281-3.851,7.714,7.714,0,0,1,4.223-1.109,19.54,19.54,0,0,1,3.4.322l-.436,2.157a12.562,12.562,0,0,0-3.235-.413,6.277,6.277,0,0,0-5.233,2.714,11.068,11.068,0,0,0-2.042,6.851v13.8Z"/><path class="cls-2" d="M189.034,258.72V223.011h2.249v8.971q0,2.018-.092,3.716l-.068,1.95h.16a9.115,9.115,0,0,1,3.436-3.3,10.3,10.3,0,0,1,4.838-1.055q5.259,0,7.925,3.287t2.665,9.611q0,6.229-2.8,9.61a9.67,9.67,0,0,1-7.88,3.379,10.254,10.254,0,0,1-4.8-1.112,8.426,8.426,0,0,1-3.379-3.152H191.1l-.573,3.805Zm2.249-12.141q0,5.634,1.988,8.084t6.194,2.451a7.119,7.119,0,0,0,6.159-2.852q2.069-2.85,2.068-8.118,0-10.786-8.181-10.786-4.413,0-6.321,2.518t-1.907,8.314Z"/><rect class="cls-3" x="103.947" y="21.392" width="79.37" height="79.37"/><path class="cls-2" d="M112.279,62.109a25.687,25.687,0,0,1,2.166-10.9,15.7,15.7,0,0,1,6.426-7.16,19.658,19.658,0,0,1,10.084-2.486,25.18,25.18,0,0,1,11.32,2.57l-2.351,5.44a35.155,35.155,0,0,0-4.279-1.681,15.455,15.455,0,0,0-4.745-.724,10.776,10.776,0,0,0-8.859,3.989q-3.226,3.988-3.227,11.009,0,7.35,3.1,11.119t8.982,3.77a23.615,23.615,0,0,0,4.922-.505q2.379-.506,4.949-1.3v5.622a29.865,29.865,0,0,1-10.664,1.787q-8.776,0-13.3-5.322T112.279,62.109Z"/><path class="cls-2" d="M146.924,73.4a8.053,8.053,0,0,1,3.453-7.085q3.453-2.39,10.521-2.61l5.194-.162v-1.6a6,6,0,0,0-1.357-4.287,5.577,5.577,0,0,0-4.206-1.42,14.6,14.6,0,0,0-4.449.677,33.81,33.81,0,0,0-4.094,1.595l-2.035-4.568a22.138,22.138,0,0,1,5.358-1.955,24.507,24.507,0,0,1,5.494-.67q5.775,0,8.718,2.515t2.942,7.9V82.111h-4.594l-1.285-4.232h-.219a12.421,12.421,0,0,1-4.411,3.776,13.915,13.915,0,0,1-5.7,1,9.391,9.391,0,0,1-6.863-2.417A9.137,9.137,0,0,1,146.924,73.4Zm6.535.094a4.036,4.036,0,0,0,1.206,3.131,5.182,5.182,0,0,0,3.617,1.108,7.987,7.987,0,0,0,5.631-1.955,7.08,7.08,0,0,0,2.124-5.483V67.673l-3.891.164q-4.549.165-6.618,1.518A4.6,4.6,0,0,0,153.459,73.5Z"/><path class="cls-2" d="M109.572,35.444V34.239l2.585-2.6a21.852,21.852,0,0,0,1.518-1.662,3.941,3.941,0,0,0,.545-.921,2.49,2.49,0,0,0,.172-.925,1.415,1.415,0,0,0-.407-1.07,1.558,1.558,0,0,0-1.125-.39,2.98,2.98,0,0,0-1.11.212,5.2,5.2,0,0,0-1.241.768l-.868-1.062a5.609,5.609,0,0,1,1.62-.993,4.762,4.762,0,0,1,1.675-.293,3.27,3.27,0,0,1,2.228.728A2.463,2.463,0,0,1,116,27.99a3.455,3.455,0,0,1-.243,1.289,5.206,5.206,0,0,1-.745,1.257,16.979,16.979,0,0,1-1.671,1.752L111.6,33.974v.069h4.757v1.4Z"/><path class="cls-2" d="M117.563,30.444a7.134,7.134,0,0,1,.839-3.9,2.863,2.863,0,0,1,2.556-1.253,2.823,2.823,0,0,1,2.523,1.311,7.061,7.061,0,0,1,.857,3.84,7.148,7.148,0,0,1-.833,3.871,3.15,3.15,0,0,1-5.079-.041A6.979,6.979,0,0,1,117.563,30.444Zm1.634,0a7.3,7.3,0,0,0,.42,2.921,1.464,1.464,0,0,0,2.688-.014,7.214,7.214,0,0,0,.426-2.907,7.273,7.273,0,0,0-.426-2.911,1.459,1.459,0,0,0-2.688-.018A7.359,7.359,0,0,0,119.2,30.444Z"/><rect class="cls-4" x="51.021" y="123.427" width="79.37" height="79.37"/><path class="cls-5" d="M74.377,184.147V144.17h6.536v16.352H99.342V144.17h6.535v39.977H99.342v-18.02H80.913v18.02Z"/><path class="cls-5" d="M56.1,129.795l2.94-2.31h1.339v9.994H58.773v-6.453q0-1.155.055-1.832-.158.164-.387.362t-1.534,1.258Z"/><rect class="cls-4" x="158.242" y="123.427" width="79.37" height="79.37"/><path class="cls-5" d="M179.475,164.035q0-9.893,4.778-15.194t13.639-5.3q8.724,0,13.488,5.383t4.764,15.166q0,9.768-4.778,15.186t-13.529,5.418q-8.86,0-13.611-5.377T179.475,164.035Zm6.535.054q0,7.377,2.985,11.187t8.842,3.811q5.831,0,8.8-3.77t2.969-11.228q0-7.347-2.942-11.146t-8.774-3.8q-5.887,0-8.884,3.8T186.01,164.089Z"/><path class="cls-5" d="M163.868,134.944a2.5,2.5,0,0,1,.481-1.5,4.016,4.016,0,0,1,1.577-1.187,3.95,3.95,0,0,1-1.348-1.157,2.429,2.429,0,0,1-.4-1.368,2.041,2.041,0,0,1,.873-1.729,3.738,3.738,0,0,1,2.275-.644,3.673,3.673,0,0,1,2.3.651,2.088,2.088,0,0,1,.844,1.742,2.757,2.757,0,0,1-1.9,2.45,4.856,4.856,0,0,1,1.715,1.238,2.3,2.3,0,0,1,.509,1.451,2.417,2.417,0,0,1-.927,1.983,3.89,3.89,0,0,1-2.508.746,4.157,4.157,0,0,1-2.571-.7A2.344,2.344,0,0,1,163.868,134.944Zm1.606-.055a1.323,1.323,0,0,0,.5,1.1,2.117,2.117,0,0,0,1.351.394,2.077,2.077,0,0,0,1.368-.407,1.366,1.366,0,0,0,.488-1.1,1.415,1.415,0,0,0-.45-1.012,4.251,4.251,0,0,0-1.366-.849l-.2-.089a3.518,3.518,0,0,0-1.295.872A1.659,1.659,0,0,0,165.474,134.889Zm.308-5.043a1.323,1.323,0,0,0,.151.637,1.664,1.664,0,0,0,.441.509,5.283,5.283,0,0,0,.977.551,3.239,3.239,0,0,0,1.166-.763,1.393,1.393,0,0,0,.341-.934,1.116,1.116,0,0,0-.423-.92,1.747,1.747,0,0,0-1.126-.339,1.707,1.707,0,0,0-1.107.339A1.119,1.119,0,0,0,165.782,129.846Z"/><line class="cls-6" x1="144.317" y1="106.203" x2="144.317" y2="118.058"/><polygon class="cls-7" points="135.99 115.622 144.316 130.042 152.643 115.622 135.99 115.622"/></svg>